<svg xmlns="http://www.w3.org/2000/svg" viewBox="0 0 1090.44 325.57"><defs><style>.cls-1{opacity:0.7;}.cls-2,.cls-3{fill:#fff;stroke:#fff;stroke-miterlimit:10;}.cls-3{stroke-width:10px;opacity:0.8;}</style></defs><title>bebemosLogo</title><g id="Layer_2" data-name="Layer 2"><g id="Layer_1-2" data-name="Layer 1"><g class="cls-1"><path class="cls-2" d="M741.06,163.41q0,60.1,0,120.22c0,12.49-2,14.87-14.34,15-33.3.29-66.61.29-99.91.21-9.41,0-12.81-3.53-12.81-13q0-121.18.34-242.37c.06-17,5-20.18,21.21-14.82,20.75,6.84,31.63,20.37,32,42.34.6,35.45.32,70.92.4,106.38,0,.92-.1,1.85-.13,2.77-.21,5.94,1,12.33,7.5,12.89,6.76.57,9.76-4.58,9.76-11.66,0-27.12.24-54.25.51-81.37.09-9.85.26-19.71.79-29.55,1.25-23.38,16.81-40.22,40-43.68,9.9-1.48,12.87.74,13.6,11,.61,8.6,1,17.23,1,25.85C741.12,96.83,741.06,130.12,741.06,163.41Z"/><path class="cls-2" d="M954.61,24.09c-24,36-22.62,74.77-20.39,113.73.65,11.37.42,22.8.28,34.2-.18,14.88,4,22.17,18.3,27.3,26.64,9.54,53.54,18.33,80.31,27.5,13,4.46,22.44,12.4,25.8,26.44,5.07,21.26-6.75,39.94-28.28,43.95a86,86,0,0,1-15.6,1.42q-118.44.14-236.88.06c-17.39,0-19.16-1.69-19.17-18.82q0-110.58,0-221.15c0-6.76.62-13.53,1.21-20.27,1.07-12.33,4-14.83,16.42-14.29,12.9.57,12.85.56,9.67,12.73-9.62,36.83-9.62,74.33-8.08,112q1.29,31.84,1.64,63.73c.36,35.18,26.34,61.61,62.64,63.26,35.76,1.62,65.68-22.89,67.68-57.72,2.25-39.07,1.91-78.27.72-117.41-.44-14.74,1.71-29.65-2.11-44.2a205.74,205.74,0,0,0-6.37-21.18c-3-7.77-.44-11.19,7.43-11.24C924,24,938.19,24.09,954.61,24.09Z"/><path class="cls-2" d="M308.72,141.22c0,33,.07,66,0,99,0,12.19-4.84,16.89-16.87,16.86q-36.54-.09-73.09-.41c-19.65-.17-24.62-5.18-24.81-24.62-.07-7.09-.4-14.19-.25-21.28.32-14.94,2.65-17.07,17.38-17q30.92.08,61.84,0a43.53,43.53,0,0,0,6.47-.17c6.14-.94,12.17-3.18,12.14-10.3,0-7.57-6.85-7.89-12.34-8-23.75-.31-47.51-.22-71.26-.43C197,174.82,194,172,194,161.22c0-37.95-.05-75.9.36-113.85.18-17.06,5.25-21.85,22.43-22q37.47-.39,75,0c12.86.12,15.84,2.87,16,16,.3,33.31.1,66.62.1,99.93Z"/><path class="cls-2" d="M576.1,185.28c-6.74-10.43-17.48-9.17-27.49-9.34-17.58-.29-35.17,0-52.76-.11-13.06-.09-17.07-4.13-17.06-17.24q0-53.22.33-106.44a87.39,87.39,0,0,1,1.22-11.93c1-7,5.08-11.17,12.18-11.73,30.16-2.38,60.35-1.88,90.53-.29,10.21.53,10.25,8.52,10.39,15.5.42,20.35.37,40.72.41,61.08.1,44.42.07,88.85.22,133.27,0,15-4.23,19.44-19.05,19.29-24.32-.25-48.65-.4-73-.63-17.44-.16-22.73-5.19-23.23-22.38-.22-7.71-.16-15.43,0-23.14.27-14.47,2.35-16.65,16.68-16.75,19.43-.15,38.87-.12,58.31,0C562.44,194.48,570.35,193,576.1,185.28Z"/><path class="cls-2" d="M371.66,298.69H169.86c-18.24,0-18.29,0-13.38-17.72,5.38-19.42,2.7-37-10.6-52.82-9.63-11.45-9.55-16.1-.17-27.47,9.17-11.12,12-24.68,12.5-38,1.22-30.16,2.06-60.41-.82-90.56-1.37-14.35-6-27.71-14.74-39.3-3.76-5-2-6.91,3.07-8,1.2-.25,2.46-.19,3.68-.32,21.86-2.45,25.62.81,25.67,22.86.15,63.87,0,127.74.45,191.61.18,24.06,11.36,35.74,35.13,35.83,60.14.24,120.27,2.2,180.41.37,8.79-.26,17-2.82,24.8-6.62,25.29-12.33,33.78-37.7,21-62.93-2.21-4.38-5.08-8.43-7.58-12.66-2.66-4.52-4.08-9.7-.78-14,13.09-16.92,12.68-36.92,13.05-56.52.57-30.47,1.53-61.1-8.72-90.58-1.6-4.6-1.07-7.76,4.92-7.19a9.64,9.64,0,0,0,1.84-.18c18.15-2.08,20.57-.08,20.59,18.07q.1,92.12,0,184.21c0,3.4.08,6.79.22,10.18,1.17,27.41,11.33,37.7,38.86,38.12,26.84.42,53.69.07,80.53.12,6.85,0,13.22.86,14,9.76.76,8.53-2.59,12.77-11.14,13.61-2.45.24-4.94.06-7.4.06Z"/><path class="cls-2" d="M1089.83,168.37c-1,24.92,1.64,49.91-1.5,74.79a16.15,16.15,0,0,1-.51,3.65c-1,2.65.52,7.45-3.2,7.59-3.91.15-2.89-4.65-3.57-7.33-4.82-19.11-18-30.16-35.45-37.1-21.16-8.4-43-14.47-65-20.28-21-5.57-25.3-11.24-25.34-33.18s0-43.76,0-65.64c0-43.9,31-69.55,74.18-61.32,33.15,6.32,52.53,27.52,57,62.33.62,4.88,1.41,9.76,1.8,14.66C1089.78,127.12,1090.15,147.74,1089.83,168.37Z"/><path class="cls-2" d="M22.65,114.49q0-35.59,0-71.2c0-15.9,3.24-19.27,18.85-19.21,14.78.06,29.58-.09,44.33.69,29.8,1.56,51.89,21.88,54.56,51.4a550.13,550.13,0,0,1,.1,92.29c-1.79,23-16.73,36.68-40.3,37.51-21.24.75-42.53.48-63.79.37-9.6-.05-14.38-4.57-14.49-14.21-.28-25.88-.09-51.76-.09-77.64Z"/><path class="cls-2" d="M892.28,141.71c0,22.8.19,45.59,0,68.38-.29,26.43-19.78,46.83-45.3,47.86-24.67,1-45.48-18.23-47.75-44.28-.46-5.21-.69-10.45-.67-15.67.15-42.18.62-84.36.51-126.54-.1-41.48,44.13-54.73,68.34-40.94,16.22,9.24,23.64,24.21,24.38,41.92,1,23.06.23,46.18.23,69.28Z"/><path class="cls-2" d="M329.08,100.52c0-19.73-.08-39.47,0-59.2.07-13.08,4.26-16.88,17.42-16.64,9.55.18,19.1,0,28.64.32,28.41,1,47.36,19.79,47.93,48.07.46,22.49.38,45,0,67.5-.38,23.26-12.35,35.22-35.53,35.86-15.09.41-30.21.41-45.31.31-9.71-.06-14.05-4.46-14.05-14.33,0-10.47.65-20.93.81-31.4C329.2,120.85,329.08,110.68,329.08,100.52Z"/><path class="cls-2" d="M70.44,223.21c9.85,0,19.7.25,29.53-.05,20-.59,39.15,16.33,41.61,37.15,2.1,17.78-13.83,37.75-33.38,40.44-25.15,3.44-50.47,1.19-75.7.72-6.91-.13-10.45-4.67-10.46-11.62,0-17.89-.15-35.78,0-53.67.1-9.18,3.7-12.58,13.2-12.73,11.72-.2,23.44,0,35.16,0Z"/><path class="cls-2" d="M363,194.57c9.84,0,19.75-.71,29.51.16,17.42,1.56,30.25,15,30.89,31.23.62,15.87-10.75,29-29,31.35-17.09,2.17-34.39,1.19-51.57-.05-9.22-.67-13.7-6.24-13.8-15.27-.15-12.93-.07-25.86-.12-38.8,0-6.18,3.1-8.89,9.17-8.81,8.3.1,16.6,0,24.91,0Z"/></g><line class="cls-3" y1="5" x2="1082.26" y2="5"/><line class="cls-3" x1="7.18" y1="320.57" x2="1089.44" y2="320.57"/></g></g></svg>