<svg xmlns="http://www.w3.org/2000/svg" viewBox="0 0 134.53 121.37"><defs><style>.cls-1{fill:#fff;}</style></defs><title>burger</title><g id="Layer_2" data-name="Layer 2"><g id="Layer_1-2" data-name="Layer 1"><g id="Hamburger_Menu" data-name="Hamburger Menu"><path class="cls-1" d="M127.53,121.37H7a7,7,0,0,1-7-7H0a7,7,0,0,1,7-7H127.53a7,7,0,0,1,7,7h0A7,7,0,0,1,127.53,121.37Zm0-53.69H7a7,7,0,0,1-7-7H0a7,7,0,0,1,7-7H127.53a7,7,0,0,1,7,7h0A7,7,0,0,1,127.53,67.68Zm0-53.68H7A7,7,0,0,1,0,7H0A7,7,0,0,1,7,0H127.53a7,7,0,0,1,7,7h0A7,7,0,0,1,127.53,14Z"/></g></g></g></svg>