<svg xmlns="http://www.w3.org/2000/svg" viewBox="0 0 120.77 120.78"><defs><style>.cls-1{fill:#fff;}</style></defs><title>close</title><g id="Layer_2" data-name="Layer 2"><g id="Layer_1-2" data-name="Layer 1"><path class="cls-1" d="M119,119a6.24,6.24,0,0,1-4.48,1.76,9.5,9.5,0,0,1-6.57-2.91L60.39,70.29,13,117.63c-3.35,3.36-8.29,3.86-11,1.13a6.23,6.23,0,0,1-1.76-4.49,9.42,9.42,0,0,1,2.88-6.54L50.49,60.39,2.91,12.81C-.46,9.44-1,4.49,1.76,1.76A6.21,6.21,0,0,1,6.23,0a9.51,9.51,0,0,1,6.58,2.91L60.39,50.49,107.73,3.15C111.09-.21,116-.71,118.76,2a6.27,6.27,0,0,1,1.76,4.49,9.44,9.44,0,0,1-2.89,6.54L70.29,60.39,117.87,108C121.24,111.34,121.75,116.29,119,119Z"/></g></g></svg>