<svg xmlns="http://www.w3.org/2000/svg" viewBox="0 0 222.2 222.2"><defs><style>.cls-1{fill:#fff;}</style></defs><title>facebook</title><g id="Layer_2" data-name="Layer 2"><g id="Layer_1-2" data-name="Layer 1"><g id="Page-1"><g id="Facebook"><path id="Oval-1" class="cls-1" d="M119.16,94.25l0-8.44c0-4.39.45-6.75,7.21-6.75h9V62.21H121c-17.38,0-23.49,8.18-23.49,21.92V94.25H86.66V111.1H97.49V160h21.67v-48.9h14.47l1.91-16.84Zm0,0,0-8.44c0-4.39.45-6.75,7.21-6.75h9V62.21H121c-17.38,0-23.49,8.18-23.49,21.92V94.25H86.66V111.1H97.49V160h21.67v-48.9h14.47l1.91-16.84ZM111.1,0A111.1,111.1,0,1,0,222.2,111.1,111.1,111.1,0,0,0,111.1,0Zm0,208.87a97.77,97.77,0,1,1,97.77-97.77A97.78,97.78,0,0,1,111.1,208.87Zm8.09-123.06c0-4.39.45-6.75,7.21-6.75h9V62.21H121c-17.38,0-23.49,8.18-23.49,21.92V94.25H86.66V111.1H97.49V160h21.67v-48.9h14.47l1.91-16.84H119.16Z"/></g></g></g></g></svg>