<svg xmlns="http://www.w3.org/2000/svg" viewBox="0 0 215.93 216"><defs><style>.cls-1{fill:#fff;}</style></defs><title>instagram</title><g id="Layer_2" data-name="Layer 2"><g id="Layer_1-2" data-name="Layer 1"><path class="cls-1" d="M107.92,216C47.91,216.3-1.4,166.34,0,105.43,1.33,47.37,49.47-.73,109.39,0a108.21,108.21,0,0,1,106.5,110.92C214.42,168.77,166.76,216.26,107.92,216ZM13.16,108c.39,53.12,42.42,94.54,92.89,95.28,53.56.78,96.54-41.46,96.67-95.1A95.06,95.06,0,0,0,109.78,12.7C57.74,11.71,13.59,53.56,13.16,108Z" transform="translate(0 0)"/><path class="cls-1" d="M174.77,109.45c0,9.45-.26,18.94,0,28.38.65,18.16-12.44,33.32-29.73,37.66a45.58,45.58,0,0,1-10.44,1.43c-18.33.13-36.65.3-55,0-15.3-.26-27.34-6.76-35.49-20a31.39,31.39,0,0,1-4.68-16.68c0-20.58-.21-41.16,0-61.7.17-13.43,6.88-23.35,18-30.46a41.51,41.51,0,0,1,22.79-6.41c17.9,0,35.79-.22,53.68,0,15.78.22,28.25,6.81,36.36,20.67a32.08,32.08,0,0,1,4.37,16.34C174.73,89,174.77,99.23,174.77,109.45Zm-125.3-.08v29.68a23.56,23.56,0,0,0,2.6,11.26c6,11.27,15.77,16.38,28.12,16.55,17.89.26,35.83.13,53.72,0a36.73,36.73,0,0,0,9.19-1.3c11.91-3.2,22.05-13.51,21.71-28.64-.44-19.06-.09-38.12-.09-57.19a24,24,0,0,0-2.82-11.87c-6.11-11-15.85-15.94-28-16.12-17.85-.26-35.66-.17-53.51,0a38.8,38.8,0,0,0-10.61,1.74c-11.66,3.59-20.84,14-20.37,27.9C49.73,90.74,49.47,100.05,49.47,109.37Z" transform="translate(0 0)"/><path class="cls-1" d="M107.14,85.58c-11.87,0-21.67,9.71-21.62,21.36s9.79,21.23,21.75,21.28S129,118.64,129,107A21.71,21.71,0,0,0,107.14,85.58Z" transform="translate(0 0)"/></g></g></svg>