<svg xmlns="http://www.w3.org/2000/svg" viewBox="0 0 218 218"><defs><style>.cls-1{fill:#fff;}</style></defs><title>twitter</title><g id="Layer_2" data-name="Layer 2"><g id="Layer_1-2" data-name="Layer 1"><g id="Page-1"><g id="Twitter"><path id="Oval-1" class="cls-1" d="M153.71,78.57c-5.9,2.2-6.73,1.9-3.81-1.38,2.14-2.34,4.7-6.58,4.7-7.83,0-.22-1,.15-2.21.81a38.09,38.09,0,0,1-6.1,2.48l-3.75,1.24-3.39-2.41a28.28,28.28,0,0,0-5.89-3.22,22.74,22.74,0,0,0-12.13.3,21,21,0,0,0-13.52,21.06l.22,3.58-3.47-.44c-12.61-1.68-23.64-7.39-33-17L66.79,71l-1.18,3.51c-2.49,7.83-.89,16.09,4.3,21.65,2.77,3.07,2.15,3.51-2.63,1.68-1.67-.58-3.12-1-3.26-.8-.49.5,1.18,7.16,2.5,9.79A22.78,22.78,0,0,0,76,116.23l3.4,1.68-4,.08c-3.88,0-4,.07-3.61,1.61,1.39,4.75,6.86,9.8,13,12l4.3,1.53-3.74,2.34a37.72,37.72,0,0,1-18.57,5.42c-3.13.07-5.69.36-5.69.58,0,.73,8.46,4.83,13.38,6.43a56.26,56.26,0,0,0,45.46-5.4c9.36-5.78,18.72-17.26,23.08-28.38,2.36-5.92,4.71-16.75,4.71-21.93,0-3.37.22-3.81,4.09-7.83a46.35,46.35,0,0,0,4.85-5.63C157.31,77.33,157.24,77.33,153.71,78.57Zm0,0c-5.9,2.2-6.73,1.9-3.81-1.38,2.14-2.34,4.7-6.58,4.7-7.83,0-.22-1,.15-2.21.81a38.09,38.09,0,0,1-6.1,2.48l-3.75,1.24-3.39-2.41a28.28,28.28,0,0,0-5.89-3.22,22.74,22.74,0,0,0-12.13.3,21,21,0,0,0-13.52,21.06l.22,3.58-3.47-.44c-12.61-1.68-23.64-7.39-33-17L66.79,71l-1.18,3.51c-2.49,7.83-.89,16.09,4.3,21.65,2.77,3.07,2.15,3.51-2.63,1.68-1.67-.58-3.12-1-3.26-.8-.49.5,1.18,7.16,2.5,9.79A22.78,22.78,0,0,0,76,116.23l3.4,1.68-4,.08c-3.88,0-4,.07-3.61,1.61,1.39,4.75,6.86,9.8,13,12l4.3,1.53-3.74,2.34a37.72,37.72,0,0,1-18.57,5.42c-3.13.07-5.69.36-5.69.58,0,.73,8.46,4.83,13.38,6.43a56.26,56.26,0,0,0,45.46-5.4c9.36-5.78,18.72-17.26,23.08-28.38,2.36-5.92,4.71-16.75,4.71-21.93,0-3.37.22-3.81,4.09-7.83a46.35,46.35,0,0,0,4.85-5.63C157.31,77.33,157.24,77.33,153.71,78.57ZM109,0A109,109,0,1,0,218,109,109,109,0,0,0,109,0Zm0,204.92A95.92,95.92,0,1,1,204.92,109,95.91,95.91,0,0,1,109,204.92ZM153.71,78.57c-5.9,2.2-6.73,1.9-3.81-1.38,2.14-2.34,4.7-6.58,4.7-7.83,0-.22-1,.15-2.21.81a38.09,38.09,0,0,1-6.1,2.48l-3.75,1.24-3.39-2.41a28.28,28.28,0,0,0-5.89-3.22,22.74,22.74,0,0,0-12.13.3,21,21,0,0,0-13.52,21.06l.22,3.58-3.47-.44c-12.61-1.68-23.64-7.39-33-17L66.79,71l-1.18,3.51c-2.49,7.83-.89,16.09,4.3,21.65,2.77,3.07,2.15,3.51-2.63,1.68-1.67-.58-3.12-1-3.26-.8-.49.5,1.18,7.16,2.5,9.79A22.78,22.78,0,0,0,76,116.23l3.4,1.68-4,.08c-3.88,0-4,.07-3.61,1.61,1.39,4.75,6.86,9.8,13,12l4.3,1.53-3.74,2.34a37.72,37.72,0,0,1-18.57,5.42c-3.13.07-5.69.36-5.69.58,0,.73,8.46,4.83,13.38,6.43a56.26,56.26,0,0,0,45.46-5.4c9.36-5.78,18.72-17.26,23.08-28.38,2.36-5.92,4.71-16.75,4.71-21.93,0-3.37.22-3.81,4.09-7.83a46.35,46.35,0,0,0,4.85-5.63C157.31,77.33,157.24,77.33,153.71,78.57Z"/></g></g></g></g></svg>